<?xml version="1.0" standalone="no"?><!DOCTYPE svg PUBLIC "-//W3C//DTD SVG 1.1//EN" "http://www.w3.org/Graphics/SVG/1.1/DTD/svg11.dtd"><svg t="1752460631121" class="icon" viewBox="0 0 2358 1024" version="1.1" xmlns="http://www.w3.org/2000/svg" p-id="2440" xmlns:xlink="http://www.w3.org/1999/xlink" width="460.546875" height="200"><path d="M996.896351 363.702295C1108.96153 87.167359 899.343211 12.188499 762.688191 12.188499H310.396357a64.094832 64.094832 0 0 1 24.186729 80.62243l-263.635347 842.504398A134.236347 134.236347 0 0 1 0 1009.08485h366.025834a57.645038 57.645038 0 0 1-40.311215-71.35085l95.940692-304.752787s440.19847 59.660598 573.628592-270.085142m-355.94803-274.116263c47.970346 0 180.594244 6.449794 95.134468 257.588665-89.89401 263.232235-288.628301 209.215207-288.628301 209.215207l146.329711-466.803872z" fill="#13227a" p-id="2441"></path><path d="M1289.958886 1009.891075h245.898412a673.197293 673.197293 0 0 1-241.867291-152.779506 299.109217 299.109217 0 0 0 92.715795-197.524954h-128.189664a52.807692 52.807692 0 0 1 24.992953 43.939224 161.244861 161.244861 0 0 1-32.652084 93.118907 480.106573 480.106573 0 0 1-91.506458-211.230767 796.1465 796.1465 0 0 0 176.563122-100.778038 168.097767 168.097767 0 0 0 66.110393-120.933646v-3.628009a110.45273 110.45273 0 0 0-33.458309-80.62243 174.950674 174.950674 0 0 0-156.407515-40.311216 238.239282 238.239282 0 0 0-112.065178 55.226365c-74.575748 69.33529-84.25044 184.625366-84.25044 236.626833a230.983263 230.983263 0 0 0 0 27.814739l-11.690252 4.837346c-54.42014 19.752495-201.556076 58.451262-251.945095 177.772459a245.092188 245.092188 0 0 0-15.721374 85.862888 195.912506 195.912506 0 0 0 27.814739 102.793599c36.683206 56.838813 99.165589 92.715795 198.331178 91.103346a466.803872 466.803872 0 0 0 232.998824-89.087786 549.441863 549.441863 0 0 0 93.118907 74.978861m0-665.941275c-12.496477 80.62243-116.499412 161.244861-141.895477 172.128889a274.922488 274.922488 0 0 1 35.473869-174.547562c24.589841-40.311215 57.645038-55.226365 84.653552-45.954785s23.783617 27.008514 21.768056 48.373458m-145.523487 539.364059a348.288899 348.288899 0 0 1-124.964767 43.133 111.258954 111.258954 0 0 1-132.220785-114.080739c0-85.459776 92.715795-147.135935 142.298589-169.307103a732.051668 732.051668 0 0 0 114.886963 241.867291" fill="#13227a" p-id="2442"></path><path d="M2038.135039 90.795369c146.329711-35.473869 267.263357 80.62243 278.147385 87.072224l40.311215-133.02701c-58.04815-17.333823-478.091012-161.244861-774.781555 179.78802-182.609805 208.00587-227.355254 635.304751 4.031121 749.788602 248.317085 120.933646 524.045797-18.946271 541.782732-28.620962l113.274515-360.382264a129.802113 129.802113 0 0 1 88.684673-89.89401h-393.43746a68.529066 68.529066 0 0 1 48.373458 85.056664l-112.46829 360.382264c-15.318262 2.821785-331.761301 80.62243-154.391954-471.641218 37.892542-120.933646 144.717262-337.001759 318.861712-378.52231" fill="#13227a" p-id="2443"></path></svg>